<mxfile host="app.diagrams.net" agent="Mozilla/5.0 (Windows NT 10.0; Win64; x64) AppleWebKit/537.36 (KHTML, like Gecko) Chrome/137.0.0.0 Safari/537.36 Edg/137.0.0.0" version="27.1.6">
  <diagram name="Page-1" id="tLpH9J6ps-XWlxG6HWtg">
    <mxGraphModel dx="1034" dy="570" grid="1" gridSize="10" guides="1" tooltips="1" connect="1" arrows="1" fold="1" page="1" pageScale="1" pageWidth="850" pageHeight="1100" math="0" shadow="0">
      <root>
        <mxCell id="0" />
        <mxCell id="1" parent="0" />
        <mxCell id="BwbZ4iNi1supWBsJLRWu-2" value="" style="points=[[0,0],[0.25,0],[0.5,0],[0.75,0],[1,0],[1,0.25],[1,0.5],[1,0.75],[1,1],[0.75,1],[0.5,1],[0.25,1],[0,1],[0,0.75],[0,0.5],[0,0.25]];outlineConnect=0;gradientColor=none;html=1;whiteSpace=wrap;fontSize=12;fontStyle=0;container=1;pointerEvents=0;collapsible=0;recursiveResize=0;shape=mxgraph.aws4.group;grIcon=mxgraph.aws4.group_vpc;strokeColor=#248814;fillColor=none;verticalAlign=top;align=left;spacingLeft=30;fontColor=#AAB7B8;dashed=0;" parent="1" vertex="1">
          <mxGeometry x="270" y="310" width="920" height="710" as="geometry" />
        </mxCell>
        <mxCell id="BwbZ4iNi1supWBsJLRWu-3" value="us-east-2a" style="fillColor=none;strokeColor=#147EBA;dashed=1;verticalAlign=top;fontStyle=0;fontColor=#147EBA;" parent="BwbZ4iNi1supWBsJLRWu-2" vertex="1">
          <mxGeometry x="40" y="39" width="350" height="611" as="geometry" />
        </mxCell>
        <mxCell id="BwbZ4iNi1supWBsJLRWu-6" value="sub-pub-asg-a" style="points=[[0,0],[0.25,0],[0.5,0],[0.75,0],[1,0],[1,0.25],[1,0.5],[1,0.75],[1,1],[0.75,1],[0.5,1],[0.25,1],[0,1],[0,0.75],[0,0.5],[0,0.25]];outlineConnect=0;gradientColor=none;html=1;whiteSpace=wrap;fontSize=12;fontStyle=0;container=1;pointerEvents=0;collapsible=0;recursiveResize=0;shape=mxgraph.aws4.group;grIcon=mxgraph.aws4.group_security_group;grStroke=0;strokeColor=#147EBA;fillColor=#E6F2F8;verticalAlign=top;align=left;spacingLeft=30;fontColor=#147EBA;dashed=0;" parent="BwbZ4iNi1supWBsJLRWu-2" vertex="1">
          <mxGeometry x="65" y="308" width="300" height="240" as="geometry" />
        </mxCell>
        <mxCell id="BwbZ4iNi1supWBsJLRWu-7" value="" style="points=[[0,0],[0.25,0],[0.5,0],[0.75,0],[1,0],[1,0.25],[1,0.5],[1,0.75],[1,1],[0.75,1],[0.5,1],[0.25,1],[0,1],[0,0.75],[0,0.5],[0,0.25]];outlineConnect=0;gradientColor=none;html=1;whiteSpace=wrap;fontSize=12;fontStyle=0;container=1;pointerEvents=0;collapsible=0;recursiveResize=0;shape=mxgraph.aws4.groupCenter;grIcon=mxgraph.aws4.group_auto_scaling_group;grStroke=1;strokeColor=#D86613;fillColor=none;verticalAlign=top;align=center;fontColor=#000000;dashed=1;spacingTop=25;" parent="BwbZ4iNi1supWBsJLRWu-2" vertex="1">
          <mxGeometry x="60" y="250" width="800" height="350" as="geometry" />
        </mxCell>
        <mxCell id="BwbZ4iNi1supWBsJLRWu-8" value="" style="sketch=0;points=[[0,0,0],[0.25,0,0],[0.5,0,0],[0.75,0,0],[1,0,0],[0,1,0],[0.25,1,0],[0.5,1,0],[0.75,1,0],[1,1,0],[0,0.25,0],[0,0.5,0],[0,0.75,0],[1,0.25,0],[1,0.5,0],[1,0.75,0]];outlineConnect=0;fontColor=#000000;gradientColor=#F78E04;gradientDirection=north;fillColor=#D05C17;strokeColor=#ffffff;dashed=0;verticalLabelPosition=bottom;verticalAlign=top;align=center;html=1;fontSize=12;fontStyle=0;aspect=fixed;shape=mxgraph.aws4.resourceIcon;resIcon=mxgraph.aws4.eks_anywhere;" parent="BwbZ4iNi1supWBsJLRWu-7" vertex="1">
          <mxGeometry x="370" width="62.5" height="62.5" as="geometry" />
        </mxCell>
        <mxCell id="BwbZ4iNi1supWBsJLRWu-32" value="Redis" style="sketch=0;html=1;dashed=0;whitespace=wrap;fillColor=#2875E2;strokeColor=#ffffff;points=[[0.005,0.63,0],[0.1,0.2,0],[0.9,0.2,0],[0.5,0,0],[0.995,0.63,0],[0.72,0.99,0],[0.5,1,0],[0.28,0.99,0]];verticalLabelPosition=bottom;align=center;verticalAlign=top;shape=mxgraph.kubernetes.icon;prIcon=pod;fontColor=#000000;direction=west;" parent="BwbZ4iNi1supWBsJLRWu-7" vertex="1">
          <mxGeometry x="110" y="200" width="50" height="46" as="geometry" />
        </mxCell>
        <mxCell id="BwbZ4iNi1supWBsJLRWu-66" value="myekstest-cluster-01" style="text;html=1;align=center;verticalAlign=middle;whiteSpace=wrap;rounded=0;" parent="BwbZ4iNi1supWBsJLRWu-7" vertex="1">
          <mxGeometry x="340" y="70" width="120" height="30" as="geometry" />
        </mxCell>
        <mxCell id="-2gIEQc2dM8PPzWPG7Uw-3" value="Node" style="text;html=1;align=center;verticalAlign=middle;whiteSpace=wrap;rounded=0;" vertex="1" parent="BwbZ4iNi1supWBsJLRWu-7">
          <mxGeometry x="245" y="102" width="60" height="30" as="geometry" />
        </mxCell>
        <mxCell id="BwbZ4iNi1supWBsJLRWu-11" value="us-east-2b" style="fillColor=none;strokeColor=#147EBA;dashed=1;verticalAlign=top;fontStyle=0;fontColor=#147EBA;" parent="BwbZ4iNi1supWBsJLRWu-2" vertex="1">
          <mxGeometry x="520" y="40" width="360" height="610" as="geometry" />
        </mxCell>
        <mxCell id="BwbZ4iNi1supWBsJLRWu-15" value="sub-pub-asg-b" style="points=[[0,0],[0.25,0],[0.5,0],[0.75,0],[1,0],[1,0.25],[1,0.5],[1,0.75],[1,1],[0.75,1],[0.5,1],[0.25,1],[0,1],[0,0.75],[0,0.5],[0,0.25]];outlineConnect=0;gradientColor=none;html=1;whiteSpace=wrap;fontSize=12;fontStyle=0;container=1;pointerEvents=0;collapsible=0;recursiveResize=0;shape=mxgraph.aws4.group;grIcon=mxgraph.aws4.group_security_group;grStroke=0;strokeColor=#147EBA;fillColor=#E6F2F8;verticalAlign=top;align=left;spacingLeft=30;fontColor=#147EBA;dashed=0;" parent="BwbZ4iNi1supWBsJLRWu-2" vertex="1">
          <mxGeometry x="540" y="310" width="300" height="240" as="geometry" />
        </mxCell>
        <mxCell id="BwbZ4iNi1supWBsJLRWu-18" value="Visitor App" style="sketch=0;html=1;dashed=0;whitespace=wrap;fillColor=#2875E2;strokeColor=#ffffff;points=[[0.005,0.63,0],[0.1,0.2,0],[0.9,0.2,0],[0.5,0,0],[0.995,0.63,0],[0.72,0.99,0],[0.5,1,0],[0.28,0.99,0]];verticalLabelPosition=bottom;align=center;verticalAlign=top;shape=mxgraph.kubernetes.icon;prIcon=pod;fontColor=#000000;" parent="BwbZ4iNi1supWBsJLRWu-15" vertex="1">
          <mxGeometry x="110" y="40" width="50" height="48" as="geometry" />
        </mxCell>
        <mxCell id="-2gIEQc2dM8PPzWPG7Uw-4" value="Node" style="text;html=1;align=center;verticalAlign=middle;whiteSpace=wrap;rounded=0;" vertex="1" parent="BwbZ4iNi1supWBsJLRWu-15">
          <mxGeometry x="240" y="40" width="60" height="30" as="geometry" />
        </mxCell>
        <mxCell id="BwbZ4iNi1supWBsJLRWu-25" value="ALB" style="sketch=0;outlineConnect=0;fontColor=#232F3E;gradientColor=none;fillColor=#4D27AA;strokeColor=none;dashed=0;verticalLabelPosition=bottom;verticalAlign=top;align=center;html=1;fontSize=12;fontStyle=0;aspect=fixed;pointerEvents=1;shape=mxgraph.aws4.application_load_balancer;" parent="BwbZ4iNi1supWBsJLRWu-2" vertex="1">
          <mxGeometry x="426.75" y="90" width="58.25" height="58.25" as="geometry" />
        </mxCell>
        <mxCell id="BwbZ4iNi1supWBsJLRWu-40" style="edgeStyle=orthogonalEdgeStyle;rounded=0;orthogonalLoop=1;jettySize=auto;html=1;entryX=0.5;entryY=0;entryDx=0;entryDy=0;entryPerimeter=0;fontColor=#000000;" parent="BwbZ4iNi1supWBsJLRWu-2" source="BwbZ4iNi1supWBsJLRWu-25" target="BwbZ4iNi1supWBsJLRWu-28" edge="1">
          <mxGeometry relative="1" as="geometry" />
        </mxCell>
        <mxCell id="BwbZ4iNi1supWBsJLRWu-41" value="ALB Ingress Controler" style="edgeLabel;html=1;align=center;verticalAlign=middle;resizable=0;points=[];fontColor=#000000;" parent="BwbZ4iNi1supWBsJLRWu-40" vertex="1" connectable="0">
          <mxGeometry x="0.4192" y="-1" relative="1" as="geometry">
            <mxPoint x="6" y="-59" as="offset" />
          </mxGeometry>
        </mxCell>
        <mxCell id="BwbZ4iNi1supWBsJLRWu-42" value="TPC:80&amp;nbsp;" style="edgeLabel;html=1;align=center;verticalAlign=middle;resizable=0;points=[];fontColor=#000000;" parent="BwbZ4iNi1supWBsJLRWu-40" vertex="1" connectable="0">
          <mxGeometry x="0.6499" y="2" relative="1" as="geometry">
            <mxPoint y="-91" as="offset" />
          </mxGeometry>
        </mxCell>
        <mxCell id="BwbZ4iNi1supWBsJLRWu-43" style="edgeStyle=orthogonalEdgeStyle;rounded=0;orthogonalLoop=1;jettySize=auto;html=1;fontColor=#000000;entryX=0.5;entryY=0;entryDx=0;entryDy=0;entryPerimeter=0;" parent="BwbZ4iNi1supWBsJLRWu-2" source="BwbZ4iNi1supWBsJLRWu-25" target="BwbZ4iNi1supWBsJLRWu-18" edge="1">
          <mxGeometry relative="1" as="geometry">
            <mxPoint x="770" y="280" as="targetPoint" />
          </mxGeometry>
        </mxCell>
        <mxCell id="BwbZ4iNi1supWBsJLRWu-44" value="ALB Ingress Controller" style="edgeLabel;html=1;align=center;verticalAlign=middle;resizable=0;points=[];fontColor=#000000;" parent="BwbZ4iNi1supWBsJLRWu-43" vertex="1" connectable="0">
          <mxGeometry x="0.4997" y="1" relative="1" as="geometry">
            <mxPoint x="-1" y="-92" as="offset" />
          </mxGeometry>
        </mxCell>
        <mxCell id="BwbZ4iNi1supWBsJLRWu-52" value="TCP:80" style="edgeLabel;html=1;align=center;verticalAlign=middle;resizable=0;points=[];fontColor=#000000;" parent="BwbZ4iNi1supWBsJLRWu-2" vertex="1" connectable="0">
          <mxGeometry x="760" y="140.0000000000001" as="geometry">
            <mxPoint x="-91" y="30" as="offset" />
          </mxGeometry>
        </mxCell>
        <mxCell id="BwbZ4iNi1supWBsJLRWu-19" style="edgeStyle=orthogonalEdgeStyle;rounded=0;orthogonalLoop=1;jettySize=auto;html=1;entryX=0.5;entryY=0;entryDx=0;entryDy=0;entryPerimeter=0;fontColor=#000000;" parent="BwbZ4iNi1supWBsJLRWu-2" source="BwbZ4iNi1supWBsJLRWu-18" target="BwbZ4iNi1supWBsJLRWu-16" edge="1">
          <mxGeometry relative="1" as="geometry" />
        </mxCell>
        <mxCell id="BwbZ4iNi1supWBsJLRWu-16" value="Redis" style="sketch=0;html=1;dashed=0;whitespace=wrap;fillColor=#2875E2;strokeColor=#ffffff;points=[[0.005,0.63,0],[0.1,0.2,0],[0.9,0.2,0],[0.5,0,0],[0.995,0.63,0],[0.72,0.99,0],[0.5,1,0],[0.28,0.99,0]];verticalLabelPosition=bottom;align=center;verticalAlign=top;shape=mxgraph.kubernetes.icon;prIcon=pod;fontColor=#000000;" parent="BwbZ4iNi1supWBsJLRWu-2" vertex="1">
          <mxGeometry x="650" y="460" width="50" height="48" as="geometry" />
        </mxCell>
        <mxCell id="BwbZ4iNi1supWBsJLRWu-28" value="Visitor&lt;span style=&quot;background-color: transparent; color: light-dark(rgb(0, 0, 0), rgb(237, 237, 237));&quot;&gt;-App&lt;/span&gt;&lt;div&gt;&lt;div&gt;&lt;br&gt;&lt;/div&gt;&lt;/div&gt;" style="sketch=0;html=1;dashed=0;whitespace=wrap;fillColor=#2875E2;strokeColor=#ffffff;points=[[0.005,0.63,0],[0.1,0.2,0],[0.9,0.2,0],[0.5,0,0],[0.995,0.63,0],[0.72,0.99,0],[0.5,1,0],[0.28,0.99,0]];verticalLabelPosition=bottom;align=center;verticalAlign=top;shape=mxgraph.kubernetes.icon;prIcon=pod;fontColor=#000000;" parent="BwbZ4iNi1supWBsJLRWu-2" vertex="1">
          <mxGeometry x="170" y="342" width="50" height="48" as="geometry" />
        </mxCell>
        <mxCell id="BwbZ4iNi1supWBsJLRWu-27" style="edgeStyle=orthogonalEdgeStyle;rounded=0;orthogonalLoop=1;jettySize=auto;html=1;entryX=0.5;entryY=1;entryDx=0;entryDy=0;entryPerimeter=0;fontColor=#000000;" parent="BwbZ4iNi1supWBsJLRWu-2" source="BwbZ4iNi1supWBsJLRWu-28" target="BwbZ4iNi1supWBsJLRWu-32" edge="1">
          <mxGeometry relative="1" as="geometry" />
        </mxCell>
        <mxCell id="KMS9C3hw43GFIwEoV1VO-5" value="VPC&amp;nbsp;" style="text;html=1;align=center;verticalAlign=middle;whiteSpace=wrap;rounded=0;" parent="BwbZ4iNi1supWBsJLRWu-2" vertex="1">
          <mxGeometry x="30" width="60" height="30" as="geometry" />
        </mxCell>
        <mxCell id="-2gIEQc2dM8PPzWPG7Uw-1" value="" style="shape=image;verticalLabelPosition=bottom;labelBackgroundColor=default;verticalAlign=top;aspect=fixed;imageAspect=0;image=https://miro.medium.com/v2/resize:fit:684/1*XF6UMNpSu77WpUm8EsSP0w.png;" vertex="1" parent="BwbZ4iNi1supWBsJLRWu-2">
          <mxGeometry x="310" y="310.37" width="55" height="45.35" as="geometry" />
        </mxCell>
        <mxCell id="-2gIEQc2dM8PPzWPG7Uw-2" value="" style="shape=image;verticalLabelPosition=bottom;labelBackgroundColor=default;verticalAlign=top;aspect=fixed;imageAspect=0;image=https://miro.medium.com/v2/resize:fit:684/1*XF6UMNpSu77WpUm8EsSP0w.png;" vertex="1" parent="BwbZ4iNi1supWBsJLRWu-2">
          <mxGeometry x="785" y="308" width="55" height="45.35" as="geometry" />
        </mxCell>
        <mxCell id="BwbZ4iNi1supWBsJLRWu-57" style="edgeStyle=orthogonalEdgeStyle;rounded=0;orthogonalLoop=1;jettySize=auto;html=1;entryX=0.875;entryY=0.5;entryDx=0;entryDy=0;entryPerimeter=0;strokeColor=light-dark(#141415, #d4d4ff);" parent="1" source="BwbZ4iNi1supWBsJLRWu-59" target="BwbZ4iNi1supWBsJLRWu-61" edge="1">
          <mxGeometry relative="1" as="geometry">
            <Array as="points">
              <mxPoint x="870" y="178" />
              <mxPoint x="870" y="178" />
            </Array>
          </mxGeometry>
        </mxCell>
        <mxCell id="BwbZ4iNi1supWBsJLRWu-59" value="User" style="sketch=0;aspect=fixed;pointerEvents=1;shadow=0;dashed=0;html=1;strokeColor=none;labelPosition=center;verticalLabelPosition=bottom;verticalAlign=top;align=center;fillColor=#00188D;shape=mxgraph.azure.laptop" parent="1" vertex="1">
          <mxGeometry x="890" y="162.5" width="50" height="30" as="geometry" />
        </mxCell>
        <mxCell id="KMS9C3hw43GFIwEoV1VO-2" style="edgeStyle=orthogonalEdgeStyle;rounded=0;orthogonalLoop=1;jettySize=auto;html=1;" parent="1" source="BwbZ4iNi1supWBsJLRWu-61" target="BwbZ4iNi1supWBsJLRWu-25" edge="1">
          <mxGeometry relative="1" as="geometry" />
        </mxCell>
        <mxCell id="BwbZ4iNi1supWBsJLRWu-61" value="AWS" style="ellipse;shape=cloud;whiteSpace=wrap;html=1;fillColor=#dae8fc;strokeColor=#6c8ebf;" parent="1" vertex="1">
          <mxGeometry x="685.87" y="150" width="80" height="55" as="geometry" />
        </mxCell>
      </root>
    </mxGraphModel>
  </diagram>
</mxfile>
